<svg xmlns="http://www.w3.org/2000/svg" viewBox="0 0 127 127" height="480" width="480"><path d="M63.5 60.406c-.468 0-.936-.113-1.356-.34L38.67 47.4c-1.297-.7-1.742-2.25-.993-3.462.748-1.213 2.407-1.627 3.704-.928l22.12 11.935L85.618 43.01c1.297-.7 2.955-.284 3.704.928.749 1.212.304 2.762-.993 3.462L64.856 60.067c-.42.226-.888.339-1.356.339M58.285 94.182c-1.498 0-2.712-1.135-2.712-2.534v-23.87L33.454 55.842c-1.297-.7-1.741-2.25-.992-3.462.748-1.212 2.407-1.627 3.704-.928L59.641 64.12c.839.453 1.356 1.29 1.356 2.195v25.334c0 1.4-1.215 2.534-2.712 2.534M68.715 94.182c-1.497 0-2.711-1.135-2.711-2.534V66.314c0-.906.516-1.742 1.355-2.195l23.475-12.667c1.297-.7 2.956-.284 3.704.928.75 1.212.305 2.762-.992 3.462L71.427 67.777v23.87c0 1.4-1.214 2.535-2.712 2.535" fill="#525555"/><path d="M63.5 116.417c-.416 0-.831-.101-1.203-.302l-46.95-25.333c-.744-.402-1.203-1.145-1.203-1.948V38.166c0-.803.459-1.546 1.203-1.948l46.95-25.333a2.54 2.54 0 011.203-.302c.416 0 .831.101 1.203.302l46.95 25.333c.744.402 1.203 1.145 1.203 1.948v50.668c0 .803-.459 1.546-1.203 1.948l-46.95 25.333a2.54 2.54 0 01-1.203.302m0-100.986L18.958 39.465v48.07L63.5 111.569l44.542-24.034v-48.07L63.5 15.431" fill="#e4e2e1"/></svg>